<svg version="1.1" id="Layer_1" xmlns="http://www.w3.org/2000/svg" xmlns:xlink="http://www.w3.org/1999/xlink" x="0px" y="0px"
	 width="100%" viewBox="0 0 64 64" enable-background="new 0 0 64 64" xml:space="preserve">
<path fill="#000000" opacity="1.000000" stroke="none" 
	d="
M39.000011,65.000000 
	C26.024467,65.000000 13.548928,65.000000 1.036694,65.000000 
	C1.036694,43.732925 1.036694,22.465776 1.036694,1.099313 
	C22.224968,1.099313 43.450554,1.099313 64.838074,1.099313 
	C64.838074,22.332338 64.838074,43.666061 64.838074,65.000000 
	C56.466721,65.000000 47.983368,65.000000 39.000011,65.000000 
M8.025455,27.818310 
	C8.071789,29.210859 8.118124,30.603407 8.022890,32.796440 
	C8.173265,38.710049 10.449413,41.152470 13.893232,38.712383 
	C15.380404,37.658661 15.237727,34.304649 15.969123,31.168470 
	C15.923623,29.776430 15.878123,28.384390 15.968590,26.143375 
	C15.924236,24.427422 15.879883,22.711470 15.972327,20.185089 
	C16.261030,17.349176 15.932227,14.544084 12.552694,14.204691 
	C11.190927,14.067933 9.214049,15.420739 8.327166,16.670488 
	C7.628883,17.654470 8.173160,19.520231 8.022404,21.842484 
	C8.071087,23.559265 8.119771,25.276049 8.025455,27.818310 
M29.966522,44.169468 
	C29.922380,42.778103 29.878239,41.386742 29.968937,39.184856 
	C30.263334,36.087688 29.760353,33.023064 26.017929,33.096336 
	C21.917170,33.176620 20.534914,36.102371 21.027184,40.821438 
	C21.073633,42.212818 21.120083,43.604202 21.028625,45.768475 
	C20.902735,49.517223 22.782797,52.097878 26.425226,51.824734 
	C30.445648,51.523239 30.260979,48.080700 29.966522,44.169468 
M49.026066,37.842945 
	C49.072750,39.561222 49.119438,41.279503 49.026398,43.849960 
	C49.018875,45.005585 48.590515,46.407539 49.092411,47.264984 
	C50.102890,48.991295 51.619995,50.421055 52.928078,51.973171 
	C54.283588,50.463528 55.983120,49.129150 56.873070,47.382320 
	C57.461533,46.227261 56.887913,44.480164 56.966015,42.147274 
	C56.922062,40.429634 56.878105,38.711998 56.967758,36.144764 
	C57.020790,30.442408 55.854385,29.050777 51.583618,30.046719 
	C47.272762,31.052006 49.478531,34.499706 49.026066,37.842945 
M43.967133,27.143953 
	C43.922222,25.426886 43.877312,23.709818 43.968689,21.182432 
	C43.007141,18.979221 42.383438,16.494198 40.905167,14.722008 
	C40.370529,14.081065 36.847202,14.627810 36.340527,15.545341 
	C35.339684,17.357758 35.491581,19.806734 35.022888,22.840897 
	C35.071022,24.558405 35.119156,26.275911 35.024410,28.807259 
	C34.761616,32.330723 35.514683,35.343296 39.839737,34.957924 
	C44.079624,34.580147 44.139885,31.265928 43.967133,27.143953 
M43.967625,45.179550 
	C44.204803,41.919086 43.790813,38.983013 39.592728,39.035271 
	C34.770649,39.095303 34.717861,42.444275 35.029953,46.757202 
	C35.563248,49.336933 35.869724,52.373089 39.539646,51.891560 
	C42.729752,51.472984 44.401154,49.414688 43.967625,45.179550 
M29.970631,21.163509 
	C29.366943,19.117985 29.135296,16.818928 27.991955,15.141158 
	C27.473137,14.379831 24.169334,14.270484 23.816252,14.865934 
	C22.544064,17.011389 21.990152,19.582762 21.021250,22.789600 
	C21.638836,28.156666 23.434967,30.080549 26.957611,28.910898 
	C30.444477,27.753130 30.250511,24.875156 29.970631,21.163509 
M49.266590,16.260851 
	C49.182369,18.230503 48.446003,20.509882 49.193787,22.084391 
	C49.971786,23.722536 52.651840,26.001579 53.664314,25.642633 
	C55.432747,25.015688 57.427292,22.716465 57.711784,20.869263 
	C57.991329,19.054161 56.729195,16.364426 55.248940,15.140678 
	C54.270615,14.331882 51.713108,15.433281 49.266590,16.260851 
M11.611382,42.997940 
	C7.933982,43.013874 7.627889,45.776173 8.221636,48.136265 
	C8.597141,49.628868 10.835315,51.906258 11.810092,51.709667 
	C13.389759,51.391083 15.311222,49.554123 15.831794,47.950348 
	C16.612576,45.544922 16.284889,42.801624 11.611382,42.997940 
z"/>
<path fill="#F17F1F" opacity="1.000000" stroke="none" 
	d="
M49.564606,15.970154 
	C51.713108,15.433281 54.270615,14.331882 55.248940,15.140678 
	C56.729195,16.364426 57.991329,19.054161 57.711784,20.869263 
	C57.427292,22.716465 55.432747,25.015688 53.664314,25.642633 
	C52.651840,26.001579 49.971786,23.722536 49.193787,22.084391 
	C48.446003,20.509882 49.182369,18.230503 49.564606,15.970154 
z"/>
<path fill="#E64223" opacity="1.000000" stroke="none" 
	d="
M56.834560,42.998123 
	C56.887913,44.480164 57.461533,46.227261 56.873070,47.382320 
	C55.983120,49.129150 54.283588,50.463528 52.928078,51.973167 
	C51.619995,50.421055 50.102890,48.991295 49.092411,47.264984 
	C48.590515,46.407539 49.018875,45.005585 49.521893,43.424622 
	C52.289780,42.998901 54.562168,42.998512 56.834560,42.998123 
z"/>
<path fill="#F2821F" opacity="1.000000" stroke="none" 
	d="
M21.164917,21.993246 
	C21.990152,19.582762 22.544064,17.011389 23.816252,14.865934 
	C24.169334,14.270484 27.473137,14.379831 27.991955,15.141158 
	C29.135296,16.818928 29.366943,19.117985 29.469551,21.580070 
	C26.367285,21.995504 23.766102,21.994375 21.164917,21.993246 
z"/>
<path fill="#F3831F" opacity="1.000000" stroke="none" 
	d="
M35.166824,21.992495 
	C35.491581,19.806734 35.339684,17.357758 36.340527,15.545341 
	C36.847202,14.627810 40.370529,14.081065 40.905167,14.722008 
	C42.383438,16.494198 43.007141,18.979221 43.467491,21.588997 
	C40.366467,21.994539 37.766647,21.993517 35.166824,21.992495 
z"/>
<path fill="#E34023" opacity="1.000000" stroke="none" 
	d="
M12.038256,42.996513 
	C16.284889,42.801624 16.612576,45.544922 15.831794,47.950348 
	C15.311222,49.554123 13.389759,51.391083 11.810092,51.709667 
	C10.835315,51.906258 8.597141,49.628868 8.221636,48.136265 
	C7.627889,45.776173 7.933982,43.013874 12.038256,42.996513 
z"/>
<path fill="#E74B23" opacity="1.000000" stroke="none" 
	d="
M35.164768,45.992634 
	C34.717861,42.444275 34.770649,39.095303 39.592728,39.035271 
	C43.790813,38.983013 44.204803,41.919086 43.467896,45.587570 
	C40.367031,45.994602 37.765900,45.993618 35.164768,45.992634 
z"/>
<path fill="#EE6721" opacity="1.000000" stroke="none" 
	d="
M43.831211,27.993002 
	C44.139885,31.265928 44.079624,34.580147 39.839737,34.957924 
	C35.514683,35.343296 34.761616,32.330723 35.528862,28.401649 
	C38.632610,27.995028 41.231911,27.994015 43.831211,27.993002 
z"/>
<path fill="#F07420" opacity="1.000000" stroke="none" 
	d="
M21.093082,22.391422 
	C23.766102,21.994375 26.367285,21.995504 29.401884,21.995136 
	C30.250511,24.875156 30.444477,27.753130 26.957611,28.910898 
	C23.434967,30.080549 21.638836,28.156666 21.093082,22.391422 
z"/>
<path fill="#E95822" opacity="1.000000" stroke="none" 
	d="
M21.165302,39.995499 
	C20.534914,36.102371 21.917170,33.176620 26.017929,33.096336 
	C29.760353,33.023064 30.263334,36.087688 29.469685,39.591377 
	C26.368721,39.997101 23.767012,39.996300 21.165302,39.995499 
z"/>
<path fill="#F07520" opacity="1.000000" stroke="none" 
	d="
M43.899170,27.568478 
	C41.231911,27.994015 38.632610,27.995028 35.600300,27.994730 
	C35.119156,26.275911 35.071022,24.558405 35.094856,22.416695 
	C37.766647,21.993517 40.366467,21.994539 43.399345,21.994156 
	C43.877312,23.709818 43.922222,25.426886 43.899170,27.568478 
z"/>
<path fill="#EB6021" opacity="1.000000" stroke="none" 
	d="
M49.165806,36.993767 
	C49.478531,34.499706 47.272762,31.052006 51.583618,30.046719 
	C55.854385,29.050777 57.020790,30.442408 56.475319,36.570797 
	C53.710518,36.995808 51.438164,36.994789 49.165806,36.993767 
z"/>
<path fill="#EA5D21" opacity="1.000000" stroke="none" 
	d="
M15.835436,31.995583 
	C15.237727,34.304649 15.380404,37.658661 13.893232,38.712383 
	C10.449413,41.152470 8.173265,38.710049 8.519459,32.397434 
	C11.289163,31.997480 13.562300,31.996532 15.835436,31.995583 
z"/>
<path fill="#E54023" opacity="1.000000" stroke="none" 
	d="
M29.834047,44.995998 
	C30.260979,48.080700 30.445648,51.523239 26.425226,51.824734 
	C22.782797,52.097878 20.902735,49.517223 21.529327,45.383286 
	C24.631367,44.997398 27.232708,44.996696 29.834047,44.995998 
z"/>
<path fill="#F2841F" opacity="1.000000" stroke="none" 
	d="
M8.165517,20.994326 
	C8.173160,19.520231 7.628883,17.654470 8.327166,16.670488 
	C9.214049,15.420739 11.190927,14.067933 12.552694,14.204691 
	C15.932227,14.544084 16.261030,17.349176 15.478188,20.591488 
	C12.711205,20.996698 10.438360,20.995512 8.165517,20.994326 
z"/>
<path fill="#E95222" opacity="1.000000" stroke="none" 
	d="
M49.095936,37.418358 
	C51.438164,36.994789 53.710518,36.995808 56.408512,36.995594 
	C56.878105,38.711998 56.922062,40.429634 56.900288,42.572701 
	C54.562168,42.998512 52.289780,42.998901 49.591759,42.998535 
	C49.119438,41.279503 49.072750,39.561222 49.095936,37.418358 
z"/>
<path fill="#F17720" opacity="1.000000" stroke="none" 
	d="
M8.093960,21.418404 
	C10.438360,20.995512 12.711205,20.996698 15.409788,20.996700 
	C15.879883,22.711470 15.924236,24.427422 15.475193,26.569233 
	C12.710682,26.994337 10.439568,26.993584 8.168454,26.992830 
	C8.119771,25.276049 8.071087,23.559265 8.093960,21.418404 
z"/>
<path fill="#E84C23" opacity="1.000000" stroke="none" 
	d="
M29.900284,44.582733 
	C27.232708,44.996696 24.631367,44.997398 21.598280,44.996841 
	C21.120083,43.604202 21.073633,42.212818 21.096243,40.408470 
	C23.767012,39.996300 26.368721,39.997101 29.402264,39.996635 
	C29.878239,41.386742 29.922380,42.778103 29.900284,44.582733 
z"/>
<path fill="#E43E23" opacity="1.000000" stroke="none" 
	d="
M35.097359,46.374916 
	C37.765900,45.993618 40.367031,45.994602 43.401546,45.994064 
	C44.401154,49.414688 42.729752,51.472984 39.539646,51.891560 
	C35.869724,52.373089 35.563248,49.336933 35.097359,46.374916 
z"/>
<path fill="#EE6A21" opacity="1.000000" stroke="none" 
	d="
M8.096954,27.405571 
	C10.439568,26.993584 12.710682,26.994337 15.407209,26.993719 
	C15.878123,28.384390 15.923623,29.776430 15.902279,31.582027 
	C13.562300,31.996532 11.289163,31.997480 8.590242,31.997192 
	C8.118124,30.603407 8.071789,29.210859 8.096954,27.405571 
z"/>
</svg>