<svg width="26" height="6" viewBox="0 0 26 6" fill="none" xmlns="http://www.w3.org/2000/svg">
<rect width="25.8864" height="6.00085" rx="1" fill="#0D0C0C"/>
<path d="M1 2.01953H1.86261L2.52776 3.41737L3.19294 2.01953H4.06073L2.52776 4.99195L1 2.01953Z" fill="white"/>
<path d="M4.45026 2.14325H5.22972V4.99616H4.45026V2.14325ZM4.83999 1.83666C4.60091 1.83666 4.4035 1.64959 4.4035 1.41572C4.4035 1.1871 4.60091 1 4.83999 1C5.07381 1 5.26611 1.1871 5.26611 1.41572C5.26611 1.64959 5.07381 1.83666 4.83999 1.83666Z" fill="white"/>
<path d="M7.158 2.69865C6.66431 2.69865 6.37334 3.04162 6.37334 3.5093C6.37334 3.96137 6.67993 4.31474 7.158 4.31474C7.64127 4.31474 7.94263 4.00815 7.94263 3.5093C7.94263 3.03642 7.64127 2.69865 7.158 2.69865ZM7.9115 4.65253C7.79198 4.81361 7.449 5.0007 7.04364 5.0007C6.13946 5.0007 5.60944 4.33034 5.60944 3.5093C5.60944 2.68822 6.13946 2.01788 7.04364 2.01788C7.45939 2.01788 7.76596 2.18417 7.9115 2.37646V1.00977H8.68057V4.93836H7.9115V4.65253Z" fill="white"/>
<path d="M9.81984 3.24589H11.2489C11.2177 2.98608 10.9631 2.70027 10.5734 2.70027C10.1265 2.70027 9.85103 2.95489 9.81984 3.24589ZM9.02478 3.50573C9.02478 2.33132 10.0433 2.01953 10.5785 2.01953C11.3113 2.01953 12.0439 2.51839 12.0699 3.43816C12.0699 3.65645 12.0543 3.79675 12.0543 3.79675H9.79905C9.89258 4.26443 10.4227 4.31641 10.5785 4.31641C11.0099 4.31641 11.2229 4.08255 11.3113 3.98379L11.914 4.33197C11.7997 4.48788 11.4152 4.99714 10.5785 4.99714C10.0225 4.99714 9.02478 4.68015 9.02478 3.50573Z" fill="white"/>
<path d="M13.1761 3.50574C13.1761 3.97862 13.5139 4.3216 13.9608 4.3216C14.4025 4.3216 14.7455 3.96823 14.7455 3.50574C14.7455 3.04844 14.4025 2.7003 13.9608 2.7003C13.5243 2.7003 13.1761 3.05366 13.1761 3.50574ZM12.4122 3.50574C12.4122 2.6899 13.1086 2.01953 13.9608 2.01953C14.8131 2.01953 15.5198 2.6899 15.5198 3.50574C15.5198 4.33197 14.8131 4.99714 13.9608 4.99714C13.1086 4.99714 12.4122 4.33197 12.4122 3.50574Z" fill="white"/>
<path d="M15.8644 4.55023L16.2697 4.00978C16.4931 4.1605 16.8517 4.31641 17.1947 4.31641C17.4337 4.31641 17.6052 4.20728 17.6052 4.06176C17.6052 3.86947 17.2051 3.8487 17.0544 3.82271C16.6647 3.75517 15.9216 3.64083 15.9216 2.92372C15.9216 2.08706 16.8257 2.01953 17.1012 2.01953C17.5532 2.01953 17.917 2.14944 18.2912 2.43005L17.8859 2.96008C17.6728 2.83537 17.3922 2.69507 17.0751 2.69507C16.9245 2.69507 16.7011 2.76782 16.7011 2.90812C16.7011 3.1004 17.1167 3.14716 17.2415 3.16277C17.7247 3.24593 18.3796 3.32907 18.3796 4.06696C18.3796 4.65936 17.9533 4.99714 17.2051 4.99714C16.5919 4.99714 16.1762 4.79967 15.8644 4.55023Z" fill="white"/>
<path d="M20.2712 2.69865C19.7775 2.69865 19.4866 3.04162 19.4866 3.5093C19.4866 3.96137 19.7932 4.31474 20.2712 4.31474C20.7546 4.31474 21.056 4.00815 21.056 3.5093C21.056 3.03642 20.7546 2.69865 20.2712 2.69865ZM21.0248 4.65253C20.9053 4.81361 20.5623 5.0007 20.157 5.0007C19.2527 5.0007 18.7227 4.33034 18.7227 3.5093C18.7227 2.68822 19.2527 2.01788 20.157 2.01788C20.5726 2.01788 20.8793 2.18417 21.0248 2.37646V1.00977H21.7939V4.93836H21.0248V4.65253Z" fill="white"/>
<path d="M22.9169 1.07227V3.35874L23.8887 2.15833H24.8396L23.6912 3.48865L24.8864 5.00085H23.9458L23.1975 4.06545L22.9169 4.38767V5.00085H22.1373V1.07227H22.9169Z" fill="white"/>
</svg>
